<?xml version="1.0" encoding="UTF-8"?><svg id="instagram" xmlns="http://www.w3.org/2000/svg" viewBox="0 0 20 20">
    <path fill="currentColor" d="M10,2.16c2.55,0,2.86.01,3.87.06,2.75.13,4.04,1.43,4.16,4.16.05,1.01.06,1.31.06,3.87s-.01,2.86-.06,3.87c-.13,2.73-1.41,4.04-4.16,4.16-1.01.05-1.31.06-3.87.06s-2.86-.01-3.87-.06c-2.76-.13-4.04-1.44-4.16-4.16-.05-1.01-.06-1.32-.06-3.87s.01-2.86.06-3.87c.13-2.73,1.41-4.04,4.16-4.16,1.01-.05,1.32-.06,3.87-.06ZM10,.4C7.41.4,7.08.41,6.06.46,2.36.63.63,2.36.46,6.06c-.05,1.02-.06,1.35-.06,3.94s.01,2.92.06,3.94c.17,3.7,1.9,5.43,5.6,5.6,1.02.05,1.35.06,3.94.06s2.92-.01,3.94-.06c3.69-.17,5.43-1.9,5.6-5.6.05-1.02.06-1.35.06-3.94s-.01-2.92-.06-3.94c-.17-3.69-1.9-5.43-5.6-5.6C12.92.41,12.59.4,10,.4ZM10,5.32c-2.58,0-4.68,2.1-4.68,4.68s2.1,4.68,4.68,4.68,4.68-2.1,4.68-4.68-2.1-4.68-4.68-4.68ZM10,13.04c-1.68,0-3.04-1.36-3.04-3.04s1.36-3.04,3.04-3.04,3.04,1.36,3.04,3.04-1.36,3.04-3.04,3.04ZM14.87,4.08c-.6,0-1.09.49-1.09,1.09s.49,1.09,1.09,1.09,1.09-.49,1.09-1.09-.49-1.09-1.09-1.09Z"/>
</svg>
